<svg width="26" height="26" viewBox="0 0 26 26" fill="none" xmlns="http://www.w3.org/2000/svg">
    <path
        d="M15.493 9.90538C15.855 10.3225 16.4866 10.3673 16.9037 10.0053C17.3208 9.64335 17.3656 9.01176 17.0036 8.59462L15.493 9.90538ZM10.507 16.0946C10.1451 15.6775 9.51347 15.6327 9.09633 15.9947C8.67919 16.3567 8.63445 16.9882 8.99641 17.4054L10.507 16.0946ZM14 6.75C14 6.19772 13.5523 5.75 13 5.75C12.4477 5.75 12 6.19772 12 6.75H14ZM12 19.25C12 19.8023 12.4477 20.25 13 20.25C13.5523 20.25 14 19.8023 14 19.25L12 19.25ZM23.25 13C23.25 18.6609 18.6609 23.25 13 23.25V25.25C19.7655 25.25 25.25 19.7655 25.25 13H23.25ZM13 23.25C7.33908 23.25 2.75 18.6609 2.75 13H0.75C0.75 19.7655 6.23451 25.25 13 25.25V23.25ZM2.75 13C2.75 7.33908 7.33908 2.75 13 2.75V0.75C6.23451 0.75 0.75 6.23451 0.75 13H2.75ZM13 2.75C18.6609 2.75 23.25 7.33908 23.25 13H25.25C25.25 6.23451 19.7655 0.75 13 0.75V2.75ZM13 12C12.1344 12 11.3959 11.7643 10.903 11.4357C10.4032 11.1025 10.25 10.752 10.25 10.5H8.25C8.25 11.6287 8.93625 12.5282 9.79365 13.0998C10.658 13.6761 11.7946 14 13 14V12ZM10.25 10.5C10.25 10.248 10.4032 9.89751 10.903 9.56428C11.3959 9.23572 12.1344 9 13 9V7C11.7946 7 10.658 7.32392 9.79365 7.90018C8.93625 8.47178 8.25 9.37126 8.25 10.5H10.25ZM13 9C14.1814 9 15.083 9.43286 15.493 9.90538L17.0036 8.59462C16.1168 7.57264 14.5947 7 13 7V9ZM13 14C13.8656 14 14.6041 14.2357 15.097 14.5643C15.5968 14.8975 15.75 15.248 15.75 15.5H17.75C17.75 14.3713 17.0638 13.4718 16.2064 12.9002C15.342 12.3239 14.2054 12 13 12V14ZM12 6.75V8H14V6.75H12ZM12 18L12 19.25L14 19.25L14 18L12 18ZM13 17C11.8186 17 10.917 16.5671 10.507 16.0946L8.99641 17.4054C9.88319 18.4274 11.4054 19 13 19L13 17ZM15.75 15.5C15.75 15.752 15.5968 16.1025 15.097 16.4357C14.6041 16.7643 13.8657 17 13 17V19C14.2054 19 15.342 18.6761 16.2064 18.0998C17.0638 17.5282 17.75 16.6287 17.75 15.5H15.75ZM12 8L12 18L14 18L14 8L12 8Z"
        fill="url(#paint0_linear_1407_1410)" />
    <defs>
        <linearGradient id="paint0_linear_1407_1410" x1="13.042" y1="4.36161" x2="13.042"
            y2="8.98214" gradientUnits="userSpaceOnUse">
            <stop stop-color="#D1D1D1" />
            <stop offset="1" stop-color="white" />
        </linearGradient>
    </defs>
</svg>