<svg
    width="37"
    height="34"
    viewBox="0 0 37 34"
    fill="none"
    xmlns="http://www.w3.org/2000/svg"
>
<path
        d="M35.6724 4.75604L35.6719 4.75878C35.1911 7.25792 34.7098 9.75758 34.2284 12.2576C33.0352 18.4544 31.8415 24.6534 30.6535 30.8523L30.6535 30.8526C30.3036 32.6846 28.3641 33.4322 26.8995 32.3059C26.17 31.7406 25.4436 31.1731 24.7152 30.6039C24.3954 30.354 24.0751 30.1038 23.754 29.8533L23.7539 29.8532C23.1681 29.3965 22.5837 28.942 21.999 28.4872C21.2849 27.9318 20.5705 27.3762 19.8529 26.816L19.525 26.5601L19.2137 26.8358C19.0214 27.0062 18.8689 27.1416 18.7158 27.2835L18.7155 27.2837C18.288 27.6801 17.8626 28.0764 17.4379 28.472C16.5799 29.2711 15.7246 30.0677 14.8607 30.8581C14.435 31.2466 14.047 31.3424 13.7522 31.2893C13.4587 31.2365 13.1331 31.0136 12.8776 30.5027C12.6818 30.1111 12.532 29.6805 12.3979 29.23L12.397 29.2272C12.2063 28.5998 12.0129 27.9752 11.82 27.3519C11.2576 25.5354 10.6987 23.73 10.2177 21.8996L10.2173 21.8982C10.0664 21.3309 9.84371 20.8559 9.48008 20.4783C9.11578 20.1 8.649 19.8596 8.08138 19.6927L8.07974 19.6922C6.60056 19.2626 5.1535 18.7474 3.69042 18.2264C3.18378 18.046 2.67521 17.865 2.16273 17.6865C1.34989 17.4004 0.783211 16.9694 0.561484 16.2317L0.561284 16.231C0.443725 15.8419 0.497789 15.4947 0.701547 15.1789C0.914941 14.8482 1.31467 14.5211 1.9361 14.2544L1.93613 14.2544C2.85276 13.861 3.76933 13.4674 4.68589 13.0738C8.74379 11.3313 12.8015 9.58891 16.8629 7.86111C21.1159 6.05388 25.3746 4.25552 29.6333 2.45715C31.1779 1.80491 32.7225 1.15267 34.2668 0.5H34.7938C35.4436 0.771166 35.7717 1.04644 35.937 1.35426C36.1113 1.67877 36.1617 2.14499 36.018 2.92393C35.9842 3.10429 35.951 3.28324 35.918 3.46128C35.8374 3.89599 35.7578 4.32524 35.6724 4.75604ZM29.9133 5.92403L29.62 5.50851L29.2095 5.8089C28.8295 6.08702 28.4496 6.36644 28.0702 6.64547L28.0695 6.64599L28.0691 6.64632C27.6895 6.92552 27.3104 7.20432 26.9315 7.48168L26.9296 7.48307C25.9591 8.20034 24.9888 8.91777 24.0183 9.63522C19.6731 12.8477 15.3271 16.0608 10.9736 19.263C10.7735 19.4092 10.5655 19.6003 10.4644 19.8786C10.3595 20.1675 10.4035 20.4534 10.4937 20.7142C10.696 21.3098 10.8726 21.9057 11.0529 22.514C11.1292 22.7715 11.2061 23.0311 11.286 23.294C11.469 23.9034 11.6514 24.5125 11.8359 25.1284C12.1555 26.1957 12.4812 27.2832 12.8266 28.4276L13.2276 29.7561L13.7661 28.4772C13.8098 28.3735 13.8527 28.2763 13.8929 28.1852C13.9583 28.0372 14.0167 27.9049 14.0603 27.7856C14.29 27.1753 14.5182 26.5655 14.7461 25.9563C15.2017 24.7384 15.6565 23.5228 16.1217 22.3104L16.1223 22.3089C16.2064 22.0875 16.3354 21.8702 16.4868 21.6969C18.4249 19.5161 20.3684 17.3442 22.3143 15.1698C23.0578 14.3389 23.8016 13.5077 24.5456 12.6755L24.5457 12.6754C25.4452 11.6685 26.3448 10.6631 27.2445 9.65746L27.2482 9.65334C28.1466 8.64914 29.0451 7.6448 29.9437 6.63906L29.5779 6.31219L29.5725 6.3048L29.9793 6.01757L29.9133 5.92403Z"
        stroke="url(#paint0_linear_529_3554)"
    />
<defs>
<linearGradient
            id="paint0_linear_529_3554"
            x1="4.27813"
            y1="24.1702"
            x2="33.5352"
            y2="24.289"
            gradientUnits="userSpaceOnUse"
        >
<stop stop-color="#EC6CA9" />
<stop offset="1" stop-color="#7B61FF" />
</linearGradient>
</defs>
</svg>
