<svg
    width="37"
    height="30"
    viewBox="0 0 37 30"
    fill="none"
    xmlns="http://www.w3.org/2000/svg"
>
<mask id="path-1-inside-1_529_3552" fill="white">
<path
            d="M0 26.7092C4.00586 26.9348 7.58803 25.9499 10.8896 23.4737C7.41745 23.127 5.12838 21.4268 3.85729 18.2023H6.99375L7.03227 18.0152C5.34848 17.553 3.92332 16.7001 2.85032 15.3244C1.77733 13.9543 1.24358 12.4026 1.22707 10.7023L4.36903 11.5772L4.46808 11.3901C2.93837 10.2235 1.88738 8.74886 1.47469 6.87249C1.06199 4.99062 1.31511 3.19678 2.29456 1.42496C6.38296 6.20668 11.5169 8.84791 17.7733 9.29912C17.7733 8.35268 17.6632 7.42825 17.7953 6.53683C18.23 3.60947 19.8697 1.54602 22.6485 0.517037C25.4548 -0.522946 28.041 0.0273095 30.3026 1.97521C30.6713 2.29436 30.9794 2.43743 31.4416 2.26685C32.7787 1.77162 34.1269 1.2929 35.486 0.80317C34.9467 2.39891 33.8902 3.65349 32.4651 4.63845L32.5421 4.79803L36.493 3.72503C36.1683 4.14322 35.9042 4.57242 35.563 4.92459C34.8147 5.68944 34.0498 6.43229 33.2464 7.14212C32.9493 7.40074 32.8448 7.63735 32.8393 8.02252C32.7732 15.1758 30.0715 21.1186 24.4534 25.5922C20.0568 29.0918 14.9284 30.2914 9.38186 29.8457C6.2344 29.5925 3.30704 28.6186 0.572266 27.0559C0.4292 26.9733 0.286135 26.8908 0.148571 26.8027C0.0990484 26.7697 0.0550267 26.7312 0.00550373 26.6982L0 26.7092Z"
        />
</mask>
<path
        d="M0 26.7092L-0.894393 26.2619L-1.57462 27.6221L-0.0562296 27.7076L0 26.7092ZM10.8896 23.4737L11.4896 24.2737L13.543 22.7337L10.9889 22.4786L10.8896 23.4737ZM3.85729 18.2023V17.2023H2.3882L2.92697 18.569L3.85729 18.2023ZM6.99375 18.2023V19.2023H7.80884L7.97321 18.4039L6.99375 18.2023ZM7.03227 18.0152L8.01172 18.2168L8.2007 17.2989L7.29698 17.0508L7.03227 18.0152ZM2.85032 15.3244L3.63883 14.7094L3.63763 14.7079L2.85032 15.3244ZM1.22707 10.7023L1.49532 9.73892L0.214208 9.38218L0.227119 10.712L1.22707 10.7023ZM4.36903 11.5772L4.10078 12.5405L4.8762 12.7564L5.25282 12.0451L4.36903 11.5772ZM4.46808 11.3901L5.35186 11.858L5.74844 11.1089L5.07446 10.5949L4.46808 11.3901ZM1.47469 6.87249L0.497897 7.0867L0.498029 7.0873L1.47469 6.87249ZM2.29456 1.42496L3.05462 0.775104L2.11724 -0.321246L1.41938 0.941163L2.29456 1.42496ZM17.7733 9.29912L17.7013 10.2965L18.7733 10.3738V9.29912H17.7733ZM17.7953 6.53683L16.8061 6.38995L16.8061 6.39029L17.7953 6.53683ZM22.6485 0.517037L22.9958 1.45481L22.996 1.45472L22.6485 0.517037ZM30.3026 1.97521L30.9571 1.21915L30.9552 1.21752L30.3026 1.97521ZM31.4416 2.26685L31.7878 3.205L31.7889 3.2046L31.4416 2.26685ZM35.486 0.80317L36.4334 1.12332L37.0969 -0.840214L35.147 -0.13762L35.486 0.80317ZM32.4651 4.63845L31.8965 3.8158L31.1924 4.30242L31.5645 5.0732L32.4651 4.63845ZM32.5421 4.79803L31.6416 5.23277L32.0027 5.98076L32.8042 5.76307L32.5421 4.79803ZM36.493 3.72503L37.2829 4.33825L39.1165 1.97628L36.2309 2.75999L36.493 3.72503ZM35.563 4.92459L36.2778 5.62395L36.2813 5.62038L35.563 4.92459ZM33.2464 7.14212L33.903 7.89644L33.9086 7.8915L33.2464 7.14212ZM32.8393 8.02252L31.8393 8.00824L31.8393 8.01329L32.8393 8.02252ZM24.4534 25.5922L25.0761 26.3746L25.0763 26.3745L24.4534 25.5922ZM9.38186 29.8457L9.3017 30.8424L9.30176 30.8424L9.38186 29.8457ZM0.572266 27.0559L0.0725395 27.9221L0.0761273 27.9241L0.572266 27.0559ZM0.148571 26.8027L-0.406129 27.6348L-0.398353 27.64L-0.390482 27.645L0.148571 26.8027ZM0.00550373 26.6982L0.560204 25.8661L-0.382255 25.2378L-0.888889 26.2509L0.00550373 26.6982ZM-0.0562296 27.7076C4.17077 27.9457 7.98846 26.8995 11.4896 24.2737L10.2896 22.6737C7.18759 25.0002 3.84096 25.9239 0.0562296 25.7108L-0.0562296 27.7076ZM10.9889 22.4786C9.39451 22.3195 8.13762 21.8573 7.14698 21.1164C6.15737 20.3762 5.36862 19.3094 4.78762 17.8355L2.92697 18.569C3.61706 20.3196 4.60838 21.7152 5.9491 22.718C7.28879 23.72 8.9125 24.2813 10.7902 24.4688L10.9889 22.4786ZM3.85729 19.2023H6.99375V17.2023H3.85729V19.2023ZM7.97321 18.4039L8.01172 18.2168L6.05281 17.8135L6.01429 18.0006L7.97321 18.4039ZM7.29698 17.0508C5.7864 16.6362 4.55898 15.8891 3.63883 14.7094L2.06182 15.9394C3.28766 17.511 4.91057 18.4697 6.76755 18.9795L7.29698 17.0508ZM3.63763 14.7079C2.70119 13.5121 2.24141 12.174 2.22702 10.6926L0.227119 10.712C0.245752 12.6311 0.853461 14.3965 2.06302 15.941L3.63763 14.7079ZM0.958819 11.6656L4.10078 12.5405L4.63728 10.6138L1.49532 9.73892L0.958819 11.6656ZM5.25282 12.0451L5.35186 11.858L3.58429 10.9222L3.48524 11.1093L5.25282 12.0451ZM5.07446 10.5949C3.7028 9.5489 2.80559 8.26834 2.45134 6.65768L0.498029 7.0873C0.969162 9.22939 2.17393 10.8982 3.86169 12.1853L5.07446 10.5949ZM2.45147 6.65828C2.09159 5.01723 2.30605 3.47117 3.16975 1.90875L1.41938 0.941163C0.324169 2.9224 0.0323925 4.964 0.497897 7.0867L2.45147 6.65828ZM1.53451 2.07481C5.79281 7.05525 11.1725 9.82567 17.7013 10.2965L17.8452 8.30171C11.8612 7.87014 6.97312 5.35811 3.05462 0.775104L1.53451 2.07481ZM18.7733 9.29912C18.7733 8.81728 18.7442 8.28063 18.7345 7.87347C18.7239 7.43092 18.731 7.04421 18.7845 6.68338L16.8061 6.39029C16.7275 6.92087 16.7236 7.44208 16.735 7.92122C16.7473 8.43573 16.7733 8.83452 16.7733 9.29912H18.7733ZM18.7844 6.68372C19.1667 4.10959 20.5666 2.35434 22.9958 1.45481L22.3013 -0.420734C19.1729 0.737691 17.2933 3.10936 16.8061 6.38995L18.7844 6.68372ZM22.996 1.45472C25.4387 0.549496 27.6456 1.00655 29.65 2.73291L30.9552 1.21752C28.4364 -0.951934 25.471 -1.59539 22.301 -0.420645L22.996 1.45472ZM29.6481 2.73128C29.8669 2.92072 30.1648 3.14689 30.5493 3.26241C30.9706 3.38896 31.3876 3.35272 31.7878 3.205L31.0954 1.3287C31.0565 1.34306 31.0487 1.34058 31.0645 1.33969C31.0833 1.33864 31.1061 1.34138 31.1247 1.34695C31.1398 1.35149 31.1351 1.35289 31.1056 1.33426C31.0744 1.31449 31.0273 1.27992 30.9571 1.21915L29.6481 2.73128ZM31.7889 3.2046C33.1205 2.71142 34.46 2.23579 35.825 1.74396L35.147 -0.13762C33.7937 0.350008 32.437 0.83182 31.0943 1.3291L31.7889 3.2046ZM34.5386 0.483025C34.0809 1.83744 33.1801 2.92867 31.8965 3.8158L33.0336 5.4611C34.6003 4.37832 35.8126 2.96038 36.4334 1.12332L34.5386 0.483025ZM31.5645 5.0732L31.6416 5.23277L33.4427 4.36328L33.3656 4.2037L31.5645 5.0732ZM32.8042 5.76307L36.755 4.69007L36.2309 2.75999L32.28 3.83298L32.8042 5.76307ZM35.703 3.11181C35.5304 3.33419 35.3563 3.58284 35.2277 3.75832C35.0858 3.95182 34.9668 4.10287 34.8448 4.22879L36.2813 5.62038C36.5004 5.39414 36.684 5.15451 36.8407 4.94081C37.0105 4.7091 37.1309 4.53406 37.2829 4.33825L35.703 3.11181ZM34.8482 4.22523C34.1114 4.97829 33.3646 5.70333 32.5843 6.39273L33.9086 7.8915C34.7351 7.16124 35.5179 6.40059 36.2778 5.62394L34.8482 4.22523ZM32.5899 6.38781C32.3704 6.57887 32.1648 6.81187 32.0243 7.11837C31.8844 7.4239 31.8434 7.72813 31.8394 8.00824L33.8392 8.03681C33.8407 7.93174 33.8547 7.92508 33.8426 7.95135C33.8377 7.96208 33.8341 7.96554 33.839 7.95944C33.8452 7.95165 33.8631 7.93112 33.903 7.89642L32.5899 6.38781ZM31.8393 8.01329C31.7759 14.885 29.1978 20.536 23.8304 24.8099L25.0763 26.3745C30.9451 21.7013 33.7706 15.4667 33.8392 8.03176L31.8393 8.01329ZM23.8306 24.8098C19.6675 28.1236 14.8037 29.2781 9.46196 28.8489L9.30176 30.8424C15.0532 31.3046 20.4462 30.06 25.0761 26.3746L23.8306 24.8098ZM9.46202 28.8489C6.47509 28.6087 3.68853 27.6848 1.06841 26.1876L0.0761273 27.9241C2.92554 29.5523 5.9937 30.5764 9.3017 30.8424L9.46202 28.8489ZM1.07199 26.1897C0.925429 26.1051 0.802513 26.034 0.687625 25.9605L-0.390482 27.645C-0.230243 27.7476 -0.0670292 27.8415 0.0725438 27.9221L1.07199 26.1897ZM0.703272 25.9707C0.709916 25.9751 0.711962 25.9771 0.684479 25.9561C0.66519 25.9414 0.616372 25.9036 0.560204 25.8661L-0.549196 27.5303C-0.555841 27.5258 -0.557887 27.5238 -0.530404 27.5448C-0.511115 27.5596 -0.462296 27.5974 -0.406129 27.6348L0.703272 25.9707ZM-0.888889 26.2509L-0.894393 26.2619L0.894393 27.1565L0.899897 27.1455L-0.888889 26.2509Z"
        fill="url(#paint0_linear_529_3552)"
        mask="url(#path-1-inside-1_529_3552)"
    />
<defs>
<linearGradient
            id="paint0_linear_529_3552"
            x1="4.26541"
            y1="21.7026"
            x2="33.4354"
            y2="21.834"
            gradientUnits="userSpaceOnUse"
        >
<stop stop-color="#EC6CA9" />
<stop offset="1" stop-color="#7B61FF" />
</linearGradient>
</defs>
</svg>
